<?xml version="1.0" standalone="no"?><!DOCTYPE svg PUBLIC "-//W3C//DTD SVG 1.1//EN" "http://www.w3.org/Graphics/SVG/1.1/DTD/svg11.dtd"><svg width="100%" height="100%" viewBox="0 0 610 139" version="1.1" xmlns="http://www.w3.org/2000/svg" xmlns:xlink="http://www.w3.org/1999/xlink" xml:space="preserve" style="fill-rule:evenodd;clip-rule:evenodd;stroke-linejoin:round;stroke-miterlimit:1.41421;"><g><path id="path4164" d="M42.469,30.829c-2.691,0 -5.375,0.341 -7.984,1.006c-2.458,0.626 -4.847,1.487 -7.135,2.57c-0.001,0.001 -0.003,0.001 -0.004,0.002c-1.506,0.714 -2.908,1.643 -4.33,2.531l-0.617,-0.728c-1.716,-2.03 -4.243,-3.203 -6.901,-3.203l-3.685,0c-4.956,0.001 -9.034,4.079 -9.035,9.035l0,82.588c0.001,4.956 4.079,9.034 9.035,9.035l15.357,0c4.956,-0.001 9.034,-4.079 9.035,-9.035l0,-13.219c0.097,0.022 0.187,0.066 0.284,0.088c0,0 0.001,0 0.002,0c1.959,0.441 3.967,0.668 5.978,0.668c5.246,0 10.379,-0.924 15.166,-2.801c4.788,-1.877 9.127,-4.678 12.762,-8.264c3.691,-3.642 6.571,-8.077 8.584,-13.015l0,-0.002c2.098,-5.148 3.068,-10.779 3.068,-16.672c0,-5.745 -0.988,-11.281 -3.08,-16.363l0,-0.002c-2.015,-4.896 -4.885,-9.3 -8.549,-12.94c-3.616,-3.593 -7.923,-6.417 -12.675,-8.352c-0.001,0 -0.002,0 -0.002,0c-4.81,-1.956 -9.987,-2.927 -15.274,-2.927l0,0Z" style="fill:#ff6d00;fill-rule:nonzero;"/><path id="path4166" d="M108.696,30.716c-5.353,0 -10.603,1.047 -15.449,3.14c-0.001,0.001 -0.002,0.001 -0.002,0.002c-4.718,2.039 -8.979,4.933 -12.563,8.565c-3.621,3.668 -6.471,8.057 -8.48,12.92c-2.079,5.025 -3.086,10.469 -3.086,16.07c0,5.546 1.015,10.95 3.091,15.947c2.011,4.84 4.86,9.213 8.473,12.875c0,0 0.002,0 0.002,0c0,0 0,0.002 0,0.002c3.578,3.626 7.827,6.523 12.529,8.578c4.853,2.121 10.117,3.186 15.485,3.186c5.395,0 10.678,-1.06 15.541,-3.186c4.709,-2.058 8.959,-4.962 12.523,-8.599c3.587,-3.66 6.418,-8.026 8.424,-12.858c2.075,-4.994 3.094,-10.397 3.094,-15.945c0,-5.778 -0.988,-11.331 -3.082,-16.42l0,-0.002c-2.007,-4.881 -4.853,-9.274 -8.479,-12.924c0,-0.001 -0.001,-0.001 -0.002,-0.002c-3.604,-3.627 -7.918,-6.478 -12.689,-8.42c-4.821,-1.962 -10.016,-2.93 -15.33,-2.93l0,0.001Z" style="fill:#ff6d00;fill-rule:nonzero;"/><path id="path4172" d="M147.672,8.061c-5.591,0.001 -10.192,4.602 -10.193,10.194l0,83.591c0.001,5.592 4.602,10.193 10.193,10.194l15.356,0c5.591,-0.001 10.192,-4.602 10.193,-10.194l0,-83.591c-0.001,-5.592 -4.602,-10.193 -10.193,-10.194l-15.356,0Z" style="fill:#ff6d00;fill-rule:nonzero;"/><path id="path4174" d="M173.862,30.79c-6.173,0.001 -11.251,5.079 -11.252,11.252l0,33.056c0,5.504 0.912,10.866 2.918,15.815c0,0 0,0.001 0,0.002c1.91,4.712 4.693,9.021 8.283,12.556c1.3,1.28 2.779,2.35 4.252,3.42c-0.173,0.782 -0.262,1.58 -0.266,2.381l0,15.358c0.001,6.112 4.981,11.164 11.092,11.252l7.818,0.111c0.054,0 0.107,0 0.161,0c5.634,0 11.2,-1.109 16.318,-3.332l0.004,-0.002c4.904,-2.129 9.367,-5.128 13.133,-8.869l0.002,-0.002c3.785,-3.76 6.812,-8.236 8.951,-13.158c0.001,-0.002 0.001,-0.003 0.002,-0.004c2.209,-5.091 3.336,-10.614 3.387,-16.217c0,-0.034 0,-0.068 0,-0.102l0,-52.265c-0.001,-6.173 -5.08,-11.251 -11.252,-11.252l-15.358,0c-6.172,0.001 -11.251,5.079 -11.252,11.252l-0.502,0c-0.001,-6.173 -5.079,-11.251 -11.252,-11.252l-15.187,0Z" style="fill:#ff6d00;fill-rule:nonzero;"/><path id="path4176" d="M233.219,30.815c-6.158,0.001 -11.225,5.069 -11.225,11.227c0,1.366 0.249,2.72 0.735,3.996l22.783,59.804c1.655,4.344 5.843,7.23 10.49,7.231l15.299,0c4.648,-0.001 8.836,-2.887 10.49,-7.231l22.784,-59.804c0.486,-1.276 0.735,-2.63 0.735,-3.996c0,-6.158 -5.067,-11.226 -11.226,-11.227l-17.421,0c-4.764,0.001 -9.031,3.032 -10.6,7.529l-2.434,6.981l-2.451,-6.994c-1.573,-4.49 -5.836,-7.515 -10.594,-7.516l-17.365,0l0,0Z" style="fill:#ff6d00;fill-rule:nonzero;"/><path id="path4180" d="M379.842,30.739c-6.017,0.001 -10.968,4.952 -10.968,10.969c0,2.35 0.756,4.639 2.154,6.527l17.094,23.08l-17.213,24.168c-1.323,1.858 -2.035,4.083 -2.035,6.363c0,6.017 4.951,10.968 10.968,10.969l18.653,0c3.693,0 7.147,-1.866 9.171,-4.955l2.791,-4.256l2.737,4.215c2.02,3.112 5.488,4.996 9.199,4.996l18.65,0c6.017,-0.001 10.967,-4.952 10.967,-10.969c0,-2.285 -0.713,-4.513 -2.041,-6.373l-17.248,-24.156l17.129,-23.072c1.403,-1.891 2.161,-4.183 2.161,-6.537c0,-6.017 -4.951,-10.968 -10.968,-10.969l-18.65,0c-3.592,0 -6.964,1.765 -9.012,4.717l-2.924,4.213l-2.978,-4.254c-2.051,-2.928 -5.409,-4.676 -8.984,-4.676l-18.653,0l0,0Z" style="fill:#ff6d00;fill-rule:nonzero;"/><path id="path4184" d="M454.729,75.831c-2.561,0 -5.194,0.524 -7.58,1.547c-0.001,0 -0.003,0.001 -0.004,0.002c-0.002,0 -0.004,0.001 -0.006,0.002c-2.218,0.95 -4.316,2.33 -6.067,4.043c-0.001,0.001 -0.002,0.002 -0.004,0.004c-1.777,1.74 -3.217,3.857 -4.199,6.109c0,0.003 -0.001,0.005 -0.002,0.008c-1.04,2.391 -1.57,5.036 -1.57,7.605c0,2.572 0.514,5.224 1.547,7.637c0.001,0.003 0.002,0.007 0.004,0.01c0.975,2.273 2.418,4.422 4.221,6.188c0.001,0.001 0.002,0.002 0.004,0.004c1.75,1.712 3.848,3.092 6.066,4.043c0.002,0 0.004,0.001 0.006,0.002c0.001,0 0.003,0.001 0.004,0.002c2.386,1.022 5.019,1.546 7.58,1.546c2.564,0 5.228,-0.51 7.662,-1.57c2.214,-0.963 4.306,-2.362 6.041,-4.096c0.001,-0.001 0.003,-0.002 0.004,-0.004c1.79,-1.79 3.204,-3.962 4.145,-6.24c0,-0.001 0,-0.002 0,-0.004c0.986,-2.39 1.47,-4.991 1.47,-7.517c0,-2.523 -0.499,-5.118 -1.492,-7.487c-0.947,-2.258 -2.358,-4.399 -4.123,-6.164c-0.001,-0.001 -0.003,-0.002 -0.004,-0.004c-1.735,-1.733 -3.827,-3.132 -6.041,-4.095c-2.434,-1.06 -5.098,-1.571 -7.662,-1.571l0,0Z" style="fill:#ff6d00;fill-rule:nonzero;"/><path id="path4188" d="M506.438,2.364c-4.976,0 -9.896,0.977 -14.422,2.928c-4.333,1.868 -8.287,4.5 -11.631,7.793c-3.379,3.326 -6.075,7.307 -7.963,11.687c-1.009,2.34 -1.731,4.788 -2.218,7.289c-4.717,0.974 -8.132,5.164 -8.133,9.981l0,15.187c0.001,4.549 3.047,8.573 7.426,9.809l0,34.808c0,5.592 4.601,10.193 10.193,10.194l15.244,0c5.592,-0.001 10.193,-4.602 10.193,-10.194l0,-34.423l8.514,0c5.592,-0.001 10.193,-4.602 10.193,-10.194l0,-15.187c-0.004,-1.821 -0.495,-3.608 -1.423,-5.174c3.461,-1.716 5.662,-5.258 5.668,-9.121l0,-15.19c-0.001,-5.591 -4.602,-10.192 -10.194,-10.193l-11.447,0Z" style="fill:#ff6d00;fill-rule:nonzero;"/><path id="path4186" d="M543.627,30.758c-3.973,0 -7.938,0.734 -11.644,2.166c-0.001,0.001 -0.001,0.002 -0.002,0.002c-0.544,0.211 -1.038,0.526 -1.57,0.764c-1.721,-1.214 -3.775,-1.868 -5.881,-1.871l-3.686,0c-5.608,0.001 -10.222,4.615 -10.223,10.223l0,59.804c0.001,5.608 4.615,10.222 10.223,10.223l15.244,0c2.897,-0.005 5.66,-1.241 7.594,-3.398c1.935,2.157 4.698,3.393 7.596,3.398l15.242,0c2.897,-0.005 5.66,-1.241 7.594,-3.398c1.934,2.157 4.698,3.393 7.595,3.398l15.19,0c5.607,-0.001 10.222,-4.615 10.222,-10.223l0,-37.97c0,-4.446 -0.867,-8.871 -2.607,-12.948l0,-0.002c-1.671,-3.916 -4.061,-7.501 -7.059,-10.498l-0.002,-0.002c-2.987,-2.988 -6.555,-5.377 -10.451,-7.05c-4.071,-1.751 -8.497,-2.618 -12.943,-2.618c-1.978,0 -3.956,0.175 -5.912,0.51c-2.177,0.373 -4.318,0.996 -6.358,1.858c-0.001,0 -0.002,0.001 -0.004,0.002c-0.99,0.419 -1.847,1.075 -2.781,1.605c-1.11,-0.652 -2.261,-1.235 -3.467,-1.707c-0.001,-0.001 -0.002,-0.001 -0.004,-0.002c-3.791,-1.484 -7.843,-2.266 -11.906,-2.266l0,0Z" style="fill:#ff6d00;fill-rule:nonzero;"/></g><g id="Far"><path d="M379.917,55.751c-0.666,-0.122 -3.207,-0.407 -3.844,-0.463c-4.666,-0.407 -9.251,8.392 -10.232,19.636c-0.981,11.245 2.012,20.704 6.678,21.111c0.172,0.015 0.343,0.018 0.514,0.008c4.506,0.252 9.613,-7.902 11.571,-18.652c2.021,-11.105 -0.079,-20.801 -4.687,-21.64Z" style="fill:#6d4c41;"/></g><g id="letters"><path d="M26.524,123.884l-15.355,0l0,-82.587l3.685,0l6.087,7.203c1.377,-1.303 2.885,-2.532 4.523,-3.686c1.638,-1.154 3.341,-2.149 5.109,-2.987c1.768,-0.838 3.602,-1.498 5.5,-1.982c1.899,-0.484 3.816,-0.726 5.752,-0.726c4.206,0 8.162,0.754 11.866,2.261c3.704,1.508 6.942,3.639 9.716,6.394c2.773,2.755 4.96,6.077 6.561,9.967c1.601,3.891 2.401,8.2 2.401,12.927c0,4.914 -0.8,9.335 -2.401,13.262c-1.601,3.928 -3.788,7.259 -6.561,9.996c-2.774,2.736 -6.012,4.83 -9.716,6.282c-3.704,1.451 -7.66,2.177 -11.866,2.177c-1.341,0 -2.671,-0.149 -3.993,-0.446c-1.321,-0.298 -2.624,-0.698 -3.909,-1.201c-1.284,-0.502 -2.55,-1.07 -3.797,-1.703c-1.247,-0.633 -2.447,-1.284 -3.602,-1.954l0,26.803Z" style="fill:#fff;fill-rule:nonzero;"/><path d="M138.595,70.668c0,4.467 -0.8,8.628 -2.401,12.481c-1.601,3.852 -3.778,7.184 -6.533,9.995c-2.755,2.81 -5.984,5.025 -9.688,6.645c-3.704,1.619 -7.678,2.429 -11.922,2.429c-4.207,0 -8.162,-0.81 -11.866,-2.429c-3.704,-1.62 -6.943,-3.835 -9.716,-6.645c-2.774,-2.811 -4.961,-6.143 -6.562,-9.995c-1.6,-3.853 -2.401,-8.014 -2.401,-12.481c0,-4.541 0.801,-8.748 2.401,-12.62c1.601,-3.871 3.788,-7.212 6.562,-10.023c2.773,-2.81 6.012,-5.016 9.716,-6.617c3.704,-1.601 7.659,-2.401 11.866,-2.401c4.244,0 8.218,0.754 11.922,2.262c3.704,1.507 6.933,3.648 9.688,6.421c2.755,2.774 4.932,6.105 6.533,9.996c1.601,3.89 2.401,8.217 2.401,12.982Z" style="fill:#fff;fill-rule:nonzero;"/><rect x="147.027" y="17.509" width="15.356" height="83.592" style="fill:#fff;fill-rule:nonzero;"/><path d="M188.404,123.884l0,-15.356l8.488,0.111c1.489,0 2.922,-0.242 4.3,-0.725c1.377,-0.484 2.652,-1.154 3.825,-2.011c1.172,-0.856 2.205,-1.87 3.099,-3.043c0.893,-1.173 1.619,-2.448 2.178,-3.825c-1.676,0.707 -3.379,1.415 -5.11,2.122c-1.731,0.707 -3.471,1.061 -5.221,1.061c-3.685,0 -7.147,-0.652 -10.386,-1.955c-3.239,-1.302 -6.077,-3.154 -8.516,-5.556c-2.438,-2.401 -4.355,-5.323 -5.751,-8.766c-1.396,-3.444 -2.094,-7.306 -2.094,-11.587l0,-33.057l15.188,0l0,33.057c0,2.122 0.308,3.974 0.922,5.556c0.614,1.582 1.442,2.903 2.485,3.964c1.042,1.061 2.261,1.852 3.657,2.374c1.396,0.521 2.895,0.781 4.495,0.781c1.564,0 3.044,-0.363 4.44,-1.088c1.396,-0.726 2.615,-1.685 3.657,-2.876c1.042,-1.191 1.861,-2.541 2.457,-4.049c0.596,-1.507 0.893,-3.062 0.893,-4.662l0,-33.057l15.356,0l0,52.266c-0.037,4.206 -0.856,8.152 -2.457,11.838c-1.6,3.685 -3.787,6.905 -6.561,9.66c-2.773,2.755 -6.002,4.933 -9.688,6.533c-3.685,1.601 -7.631,2.401 -11.838,2.401l-7.818,-0.111Z" style="fill:#fff;fill-rule:nonzero;"/><path d="M255.356,101.101l-22.782,-59.804l17.366,0l13.067,37.301l13.01,-37.301l17.422,0l-22.782,59.804l-15.301,0Z" style="fill:#fff;fill-rule:nonzero;"/><path d="M376.105,72.453c0,5.715 -1.024,11.037 -3.072,15.966c-2.048,4.929 -4.834,9.192 -8.358,12.788c-3.524,3.595 -7.656,6.429 -12.394,8.501c-4.739,2.071 -9.823,3.107 -15.252,3.107c-5.382,0 -10.442,-1.036 -15.181,-3.107c-4.738,-2.072 -8.882,-4.906 -12.43,-8.501c-3.548,-3.596 -6.346,-7.859 -8.394,-12.788c-2.047,-4.929 -3.071,-10.251 -3.071,-15.966c0,-5.81 1.024,-11.192 3.071,-16.145c2.048,-4.953 4.846,-9.227 8.394,-12.823c3.548,-3.596 7.692,-6.417 12.43,-8.465c4.739,-2.048 9.799,-3.072 15.181,-3.072c5.429,0 10.513,0.964 15.252,2.893c4.738,1.929 8.87,4.667 12.394,8.215c3.524,3.549 6.31,7.811 8.358,12.788c2.048,4.977 3.072,10.513 3.072,16.609Z" style="fill:#2196f3;fill-rule:nonzero;"/><path d="M440.399,101.101l-18.651,0l-11.894,-18.315l-12.005,18.315l-18.651,0l21.834,-30.656l-21.834,-29.484l18.651,0l12.005,17.143l11.894,-17.143l18.651,0l-21.889,29.484l21.889,30.656Z" style="fill:#fff;fill-rule:nonzero;"/><path d="M464.223,95.405c0,1.341 -0.242,2.597 -0.726,3.77c-0.484,1.172 -1.154,2.187 -2.01,3.043c-0.857,0.856 -1.862,1.535 -3.016,2.038c-1.154,0.503 -2.401,0.754 -3.741,0.754c-1.303,0 -2.541,-0.251 -3.713,-0.754c-1.173,-0.503 -2.197,-1.182 -3.072,-2.038c-0.874,-0.856 -1.563,-1.871 -2.066,-3.043c-0.502,-1.173 -0.753,-2.429 -0.753,-3.77c0,-1.303 0.251,-2.531 0.753,-3.685c0.503,-1.154 1.192,-2.159 2.066,-3.015c0.875,-0.857 1.899,-1.536 3.072,-2.039c1.172,-0.502 2.41,-0.753 3.713,-0.753c1.34,0 2.587,0.251 3.741,0.753c1.154,0.503 2.159,1.182 3.016,2.039c0.856,0.856 1.526,1.861 2.01,3.015c0.484,1.154 0.726,2.382 0.726,3.685Z" style="fill:#fff;fill-rule:nonzero;"/><path d="M495.289,101.101l-15.244,0l0,-44.616l-7.427,0l0,-15.188l7.427,0l0,-2.848c0,-3.686 0.698,-7.148 2.094,-10.387c1.396,-3.238 3.313,-6.058 5.752,-8.459c2.438,-2.401 5.277,-4.3 8.515,-5.696c3.239,-1.396 6.701,-2.094 10.386,-2.094l11.448,0l0,15.188l-11.448,0c-1.638,0 -3.154,0.289 -4.55,0.866c-1.396,0.577 -2.606,1.377 -3.63,2.401c-1.024,1.024 -1.833,2.234 -2.429,3.63c-0.596,1.396 -0.894,2.913 -0.894,4.551l0,2.848l18.707,0l0,15.188l-18.707,0l0,44.616Z" style="fill:#fff;fill-rule:nonzero;"/><path d="M597.253,101.101l-15.188,0l0,-37.971c0,-1.042 -0.196,-2.029 -0.587,-2.96c-0.391,-0.93 -0.94,-1.749 -1.647,-2.457c-0.707,-0.707 -1.526,-1.256 -2.457,-1.647c-0.931,-0.391 -1.917,-0.586 -2.959,-0.586c-1.043,0 -2.02,0.195 -2.932,0.586c-0.912,0.391 -1.712,0.94 -2.401,1.647c-0.689,0.708 -1.229,1.527 -1.619,2.457c-0.391,0.931 -0.587,1.918 -0.587,2.96l0,37.971l-15.244,0l0,-37.971c0,-1.042 -0.196,-2.029 -0.586,-2.96c-0.391,-0.93 -0.94,-1.749 -1.648,-2.457c-0.707,-0.707 -1.526,-1.256 -2.457,-1.647c-0.93,-0.391 -1.917,-0.586 -2.959,-0.586c-1.042,0 -2.02,0.195 -2.932,0.586c-0.912,0.391 -1.712,0.94 -2.401,1.647c-0.689,0.708 -1.228,1.527 -1.619,2.457c-0.391,0.931 -0.587,1.918 -0.587,2.96l0,37.971l-15.244,0l0,-59.804l3.686,0l4.132,4.578c2.122,-1.786 4.458,-3.173 7.008,-4.16c2.55,-0.986 5.202,-1.479 7.957,-1.479c2.792,0 5.519,0.521 8.18,1.563c2.662,1.042 4.998,2.848 7.008,5.417c0.931,-1.266 1.992,-2.346 3.183,-3.239c1.191,-0.894 2.448,-1.62 3.769,-2.178c1.322,-0.558 2.69,-0.959 4.105,-1.2c1.414,-0.242 2.81,-0.363 4.188,-0.363c3.164,0 6.133,0.595 8.906,1.786c2.773,1.192 5.193,2.82 7.259,4.886c2.066,2.066 3.695,4.496 4.886,7.288c1.192,2.792 1.787,5.77 1.787,8.934l0,37.971Z" style="fill:#fff;fill-rule:nonzero;"/></g><path d="M57.069,70.668c0,-2.531 -0.4,-4.802 -1.201,-6.812c-0.8,-2.01 -1.889,-3.714 -3.266,-5.11c-1.378,-1.396 -2.997,-2.466 -4.858,-3.21c-1.862,-0.745 -3.835,-1.117 -5.919,-1.117c-2.085,0 -4.049,0.372 -5.891,1.117c-1.843,0.744 -3.453,1.814 -4.831,3.21c-1.377,1.396 -2.466,3.1 -3.266,5.11c-0.801,2.01 -1.201,4.281 -1.201,6.812c0,2.42 0.4,4.635 1.201,6.645c0.8,2.01 1.889,3.723 3.266,5.138c1.378,1.414 2.988,2.512 4.831,3.294c1.842,0.782 3.806,1.173 5.891,1.173c2.084,0 4.057,-0.391 5.919,-1.173c1.861,-0.782 3.48,-1.88 4.858,-3.294c1.377,-1.415 2.466,-3.128 3.266,-5.138c0.801,-2.01 1.201,-4.225 1.201,-6.645Z" style="fill:#ff6d00;fill-rule:nonzero;"/><path d="M123.239,70.668c0,-2.457 -0.4,-4.681 -1.2,-6.673c-0.801,-1.991 -1.89,-3.704 -3.267,-5.137c-1.377,-1.433 -2.987,-2.531 -4.83,-3.294c-1.843,-0.764 -3.807,-1.145 -5.891,-1.145c-2.085,0 -4.049,0.381 -5.891,1.145c-1.843,0.763 -3.444,1.861 -4.803,3.294c-1.358,1.433 -2.429,3.146 -3.21,5.137c-0.782,1.992 -1.173,4.216 -1.173,6.673c0,2.308 0.391,4.449 1.173,6.422c0.781,1.973 1.852,3.685 3.21,5.137c1.359,1.452 2.96,2.597 4.803,3.434c1.842,0.838 3.806,1.257 5.891,1.257c2.084,0 4.048,-0.391 5.891,-1.173c1.843,-0.782 3.453,-1.88 4.83,-3.294c1.377,-1.415 2.466,-3.128 3.267,-5.138c0.8,-2.01 1.2,-4.225 1.2,-6.645Z" style="fill:#ff6d00;fill-rule:nonzero;"/><path d="M356.46,72.453c0,-3.143 -0.465,-5.989 -1.396,-8.537c-0.93,-2.548 -2.196,-4.738 -3.797,-6.572c-1.601,-1.834 -3.473,-3.239 -5.615,-4.215c-2.142,-0.976 -4.425,-1.464 -6.848,-1.464c-2.424,0 -4.706,0.488 -6.848,1.464c-2.143,0.976 -4.003,2.381 -5.583,4.215c-1.579,1.834 -2.824,4.024 -3.732,6.572c-0.909,2.548 -1.364,5.394 -1.364,8.537c0,2.953 0.455,5.691 1.364,8.215c0.908,2.524 2.153,4.715 3.732,6.573c1.58,1.857 3.44,3.321 5.583,4.393c2.142,1.071 4.424,1.607 6.848,1.607c2.423,0 4.706,-0.5 6.848,-1.5c2.142,-1 4.014,-2.405 5.615,-4.215c1.601,-1.809 2.867,-4 3.797,-6.572c0.931,-2.572 1.396,-5.405 1.396,-8.501Z" style="fill:#fff;fill-rule:nonzero;"/><g id="Near"><path d="M297.534,55.343c0.717,-0.13 3.457,-0.438 4.143,-0.498c5.029,-0.438 9.97,9.044 11.027,21.163c1.057,12.118 -2.168,22.313 -7.197,22.752c-0.185,0.016 -0.37,0.018 -0.554,0.008c-4.856,0.272 -10.36,-8.516 -12.47,-20.102c-2.179,-11.968 0.084,-22.418 5.051,-23.323Z" style="fill:#6d4c41;"/><path d="M297.394,60.245c2.813,-0.383 6.126,6.846 7.393,16.134c1.267,9.288 0.011,17.141 -2.803,17.524c-2.813,0.384 -6.126,-6.845 -7.393,-16.133c-1.266,-9.288 -0.011,-17.141 2.803,-17.525Z" style="fill:#8d6e63;"/><path d="M296.899,60.514c2.813,-0.384 4.138,16.799 4.138,16.799c0,0 4.839,16.511 0.894,16.605c-4.386,0.104 -10.069,-16.148 -10.069,-16.148c0,0 2.223,-16.873 5.037,-17.256Z" style="fill:#8d6e63;"/><path d="M291.862,77.77l9.175,-0.457c0,0 4.839,16.511 0.894,16.605c-4.386,0.104 -10.069,-16.148 -10.069,-16.148Z" style="fill:#6d4c41;"/><path d="M289.076,49.276c0.711,0 2.092,0 2.803,0c1.548,0 0.478,2.492 0.478,5.509c0,3.017 1.07,5.425 -0.478,5.425c-0.711,0 -2.092,0 -2.803,0c-1.548,0 -2.804,-2.45 -2.804,-5.467c0,-3.018 1.256,-5.467 2.804,-5.467Z" style="fill:#6d4c41;"/><path d="M382.069,48.46c-0.712,0 -2.092,0 -2.804,0c-1.547,0 -0.478,2.492 -0.478,5.51c0,3.017 -1.069,5.424 0.478,5.424c0.712,0 2.092,0 2.804,0c1.547,0 2.804,-2.449 2.804,-5.467c0,-3.017 -1.257,-5.467 -2.804,-5.467Z" style="fill:#6d4c41;"/><path d="M382.053,48.041c-0.712,0 -2.092,0 -2.804,0c-1.547,0 -0.478,2.492 -0.478,5.51c0,3.017 -1.069,5.424 0.478,5.424c0.712,0 2.092,0 2.804,0c1.547,0 2.804,-2.449 2.804,-5.467c0,-3.017 -1.257,-5.467 -2.804,-5.467Z" style="fill:#6d4c41;"/><path d="M291.21,59.219c-1.411,-3.378 -3.683,-5.389 -3.58,-9.087c0.521,-18.818 24.83,-35.085 50.755,-34.366c0.231,0.006 0.462,0.012 0.692,0.023c23.616,1.135 43.007,16.406 44.058,35.375c0.271,4.907 -1.7,9.543 -4.398,13.692c1.283,-3.147 2.017,-6.494 2.114,-9.975c0.542,-19.556 -17.967,-35.994 -42.883,-36.685c-24.916,-0.69 -47.057,16.743 -47.35,32.963c-0.042,2.332 0.104,5.838 0.592,8.06Z" style="fill:#6d4c41;"/><path d="M378.47,50.352c0,0 -14.441,-16.148 -39.677,-16.646c-25.236,-0.498 -48.467,20.325 -48.467,20.325l-2.778,0c0,0 17.053,-22.994 51.687,-22.556c31.139,0.393 42.415,18.97 42.415,18.97" style="fill:#6d4c41;"/><path d="M288.499,58.145l3.902,0.013l7.914,30.285c0,0 -0.628,1.444 -0.973,1.423c-0.492,-0.029 -2.115,-1.599 -2.115,-1.599l-8.728,-30.122Z" style="fill:#6d4c41;"/></g></svg>